<svg xmlns="http://www.w3.org/2000/svg" viewBox="0 0 440.23 156.08"><defs><style>.cls-1{fill:#f6b300;}.cls-1,.cls-2{fill-rule:evenodd;}.cls-2,.cls-3{fill:#00103f;}</style></defs><title>资源 3</title><g id="图层_2" data-name="图层 2"><g id="图层_1-2" data-name="图层 1"><path class="cls-1" d="M80.64,0h21.68V26.88H129.2V48.56H102.32V75.44H80.64V48.56H53.76V26.88H80.64Z"/><path class="cls-2" d="M26.88,26.88H48.57V53.76H75.44V75.44H48.57v26.88H26.88V75.44H0V53.76H26.88Z"/><path class="cls-2" d="M107.52,53.76H129.2V80.64h26.88v21.68H129.2V129.2H107.52V102.32H80.64V80.64h26.88Z"/><path class="cls-2" d="M53.76,80.64H75.44v26.88h26.88V129.2H75.44v26.88H53.76V129.2H26.88V107.52H53.76Z"/><path class="cls-3" d="M197,42.07a11.38,11.38,0,0,0-4.63,1,24,24,0,0,0-4.51,2.89V31.28h-9.26V72.57h9.26V51.46a8.93,8.93,0,0,1,4.45-1.76c2.22,0,4.1.16,4.6,3.77,0,0,.24,2.34.24,4.55s0,14.55,0,14.55h9.21V53.06Q206.4,42.07,197,42.07Z"/><rect class="cls-3" x="211.32" y="31.29" width="9.74" height="7.29"/><rect class="cls-3" x="211.6" y="42.75" width="9.16" height="29.86"/><path class="cls-3" d="M244.46,42a11.38,11.38,0,0,0-4.62,1,23.47,23.47,0,0,0-4.52,2.89V42.8h-9.26V72.62h9.26V51.47a9.89,9.89,0,0,1,4.55-1.77c2.09,0,3.58.41,4.21,2.34a11.29,11.29,0,0,1,.42,2.79c0,.34.11,1.12.11,2.17V72.62h9.24V53Q253.85,42,244.46,42Z"/><path class="cls-3" d="M281,44.4Q277.65,42,270.12,42a46.26,46.26,0,0,0-10.78,1.44v4h0v3.16h.6s5-2.15,8.16-2.15a13.24,13.24,0,0,1,4.9.68A3.58,3.58,0,0,1,275.45,53s-7.49.52-10.26,1.3-8.81,2.38-8.37,10.36A5,5,0,0,0,257,66.1a8.29,8.29,0,0,0,2.43,4.73c.05.06.11.11.16.16l.05.05h0a8.87,8.87,0,0,0,6.26,2.32,14.54,14.54,0,0,0,4.79-.78,17.85,17.85,0,0,0,4.85-3v3h8.85V52.12C284.35,48.6,283.24,46,281,44.4Zm-13.61,16c2-1,6.8-1.64,8.11-1.8v6.19A7.59,7.59,0,0,1,270.06,67C265.09,67.28,265.11,61.56,267.39,60.42Z"/><path class="cls-3" d="M319.54,60.17c0-9.06-8.57-11.23-15-12.37s-6.14-3.73-6.14-3.73c-.16-4.2,5.48-4.47,5.48-4.47a18.47,18.47,0,0,1,13.17,4.47H318V35.94h0V35a39.88,39.88,0,0,0-12.63-2.59c-6.12,0-9.87,1.43-13.46,4.24S285.45,49,293,54l.06,0h0s1.32,1.53,8.62,3.25,8.39,2.87,7.28,6.51-12.9,3.58-20-3h-.68v9.51l.06,0a36.68,36.68,0,0,0,14.44,3q7.59,0,12.19-3.43a10.71,10.71,0,0,0,4.54-7.83,4.25,4.25,0,0,0,.06-.88h0v-.36C319.56,60.62,319.55,60.39,319.54,60.17Z"/><path class="cls-3" d="M362.19,42Q355,42,351,46.14t-4,11.62q0,7.4,4,11.57t11.23,4.16q7.2,0,11.21-4.16t4-11.57q0-7.44-4-11.62T362.19,42Zm.09,25c-4.26,0-6-3.05-6-9.16s1.71-9.34,5.91-9.34,6.06,3.11,6.06,9.34S366.41,67,362.28,67Z"/><path class="cls-3" d="M440.23,56.19Q440.23,42,426.85,42q-7.31,0-11.46,4.26t-4.15,11.7q0,7.49,4.38,11.46t12.74,4a32.11,32.11,0,0,0,11.41-2.3V63.35h-.6a17,17,0,0,1-10.3,3.45c-7.92,0-8.76-5.58-8.82-7.37h20.18ZM420.08,54c.25-4.42,2.25-6.16,6-6.16,3.53,0,5.33,1.74,5.39,6.16Z"/><path class="cls-3" d="M157.75,32.63c-8.17,1.2-13.88,7.15-15.13,16.45l0,.21,0,.24c0,.12,0,.23,0,.34V50c0,.13,0,.27,0,.4v.09l0,.44V51l0,.43v.13c0,.13,0,.26,0,.4v.23c0,.1,0,.2,0,.31s0,.37,0,.55q0,9.59,5.17,14.93t14.15,5.35h.61c8.45,0,12.83-3.39,12.83-3.39V60.78h-.94c-6.53,6.22-11.76,5.13-11.76,5.13-7-.62-9.64-6-9.79-13.11s3.78-12.9,10-13.11S174.07,45,174.07,45h1V35.55A27.3,27.3,0,0,0,157.75,32.63Z"/><path class="cls-3" d="M336.3,42h0Q329,42,324.64,46.11T320.2,57.84q0,7.5,4.38,11.55t11.95,4h.28c.42,0,.84,0,1.28,0a20.62,20.62,0,0,0,8.34-2.33V63.22h-1.12c-1.43,1.2-3.49,3.52-8.31,3.52s-7.43-3.41-7.43-8.81,2.67-9.34,7.37-9.34,8.37,3.62,8.37,3.62h1.12V44.42A20.47,20.47,0,0,0,336.3,42Z"/><path class="cls-3" d="M409.32,51.47a13.64,13.64,0,0,0-.62-2c-1.81-5.13-4.74-7.13-9.35-7.45s-8.45,3.1-9.38,4V42.8h-9.08V80.69H390V71c1.83,1.17,7.49,4.07,13.19.57,6.71-4.11,7.9-13.44,6.17-20.11ZM390,50.72a14.9,14.9,0,0,1,3.65-1.47c1.38-.31,7-1.26,6.84,8.35-.08,6.11-2.66,8-4.52,8.59a11.79,11.79,0,0,1-2.38.23A14,14,0,0,1,390,66Z"/><path class="cls-3" d="M364.94,86.69a30.71,30.71,0,0,1,.95-4.53H357.3a69.37,69.37,0,0,1-3.1,13.12v-1h-2.14V91.94c.15-3.49-1.83-5.16-6-5h-4.53V82.4h-7.87v4.53a3.08,3.08,0,0,0-2.87,2.87V86.93h-7.63v7.4H321v2.38h2.15v7.4h7.63V101c.32,1.91,1.27,2.94,2.87,3.1v3.1c-2.39-.15-3.74.8-4.06,2.87v-2.87H322v10h7.63v-2.38q.48,2.63,4.29,2.38h14.56c3.49.32,5.09-1,4.77-4v-1.67q.72-4.77-6-4.3h-5.72v-3.1h5.25q5.47.24,5.25-5V96.71h1.67a9.53,9.53,0,0,0-1.2,2.15q10.26.24,10.5-4.53a1.84,1.84,0,0,1,.24-.72,1.38,1.38,0,0,1,.24-1h12.88V90.51H364C364.14,89.72,364.46,88.45,364.94,86.69Zm-31.25,28.4h-.48a3,3,0,0,1-3.58-2.39v-1.43a2.48,2.48,0,0,1,2.86-1.91h1.2Zm0-13.13a3.2,3.2,0,0,1-2.87-2.38V96.71h2.87Zm0-7.63h-2.87V91a2.33,2.33,0,0,1,2.87-1.91Zm8.35,15c2.7-.16,3.89.72,3.57,2.62v.48q.48,3.11-3.57,2.63h-.48v-5.73Zm-.48-7.4V96.71h2.62v1.67Q344.42,102,341.56,102Zm2.62-9.78v2.15h-2.62V89.08C343.47,89.08,344.34,90.12,344.18,92.18Z"/><path class="cls-3" d="M368,120.1c.63-1.91,1.59-4.85,2.86-8.83q3.59-10,5-15.27H368q-.48,1.66-1.67,5c-.95,3.34-1.67,5.72-2.15,7.16-.79-2.55-1.43-4.45-1.9-5.73-.33-1.11-.56-2-.72-2.62h-7.87q1.42,5,4.53,14.55c.79,2.55,1.43,4.45,1.91,5.73q-4.79,13.83-8.11,17.89-2.16-.72-9.31-5.73,3.58-2.62,5.73-4.29a4.94,4.94,0,0,1,1.19-1v-3.1h4.53v-2.38h-4.53V118H341.8v3.58H333V118H325.1v3.58H321v2.38h4.06V127a70.38,70.38,0,0,0,6.92,5.25q-7.41,5.49-11.69,6.92,14.07.24,16.46-2.62a.42.42,0,0,1,.47-.48l.72.48q1.9,2.87,16.46,2.62,6.92.24,9.55-7.87,1.42,8.58,12.4,7.39Q372.58,135.13,368,120.1Zm-26.24,4.53a51,51,0,0,0-4.54,3.58,6.86,6.86,0,0,0-.95-.72,35.19,35.19,0,0,1-3.34-2.86v-.72h8.83Z"/><path class="cls-3" d="M416.58,124h6.69q9.08.24,8.36-4.3V106.52q.47-5.25-6.93-5h-8.12V96.73h17V94.34h-17V90.28H407.5v4.06h-16v2.39h16v4.78h-.72q-3.82,0-4.54,2.86v-2.63h-9.55v22h9.55v-2.63q.48,2.86,4.54,2.87h.72v5.73H390.78v2.15H407.5v6.93h9.08v-6.93h17.2v-2.15h-17.2Zm0-20.3h2.15q3.58-.24,3.34,2.62v5.26h-5.49Zm0,10h5.49v5.25q.24,3.11-3.34,2.87h-2.15Zm-9.08,8.12h-2.15a3.23,3.23,0,0,1-3.11-2.15v-6h5.26Zm0-10.27h-5.26v-5.73a3.13,3.13,0,0,1,3.35-2.15h1.91Z"/><path class="cls-3" d="M416.58,86.22V81.68H405.35v4.54h-6q-8.61-.48-9.32,4.06V81.74h-9.17l0,44.13c-.05,1.9,0,4,0,6.19,0,1.74,0,3.31-.05,4.28a3.41,3.41,0,0,1-1.65,2.18h9.34a2.07,2.07,0,0,0,1.53-2c0-1.11,0-8.67,0-9.26V92q1.9-3.81,8.12-3.58h36.07V86.22Z"/></g></g></svg>